<svg width="343" height="349" viewBox="0 0 343 349" fill="none" xmlns="http://www.w3.org/2000/svg">
<g clip-path="url(#clip0_4_1094)">
<path d="M0 10.9062C0 8.01373 1.12929 5.23969 3.13945 3.19437C5.1496 1.14905 7.87596 0 10.7188 0L75.0312 0C77.874 0 80.6004 1.14905 82.6105 3.19437C84.6207 5.23969 85.75 8.01373 85.75 10.9062C85.75 13.7988 84.6207 16.5728 82.6105 18.6181C80.6004 20.6635 77.874 21.8125 75.0312 21.8125H42.4375C30.8395 21.8125 21.4375 31.2145 21.4375 42.8125V76.3438C21.4375 79.2363 20.3082 82.0103 18.2981 84.0556C16.2879 86.101 13.5615 87.25 10.7188 87.25C7.87596 87.25 5.1496 86.101 3.13945 84.0556C1.12929 82.0103 0 79.2363 0 76.3438V10.9062ZM257.25 10.9062C257.25 8.01373 258.379 5.23969 260.389 3.19437C262.4 1.14905 265.126 0 267.969 0L332.281 0C335.124 0 337.85 1.14905 339.861 3.19437C341.871 5.23969 343 8.01373 343 10.9062V76.3438C343 79.2363 341.871 82.0103 339.861 84.0556C337.85 86.101 335.124 87.25 332.281 87.25C329.438 87.25 326.712 86.101 324.702 84.0556C322.692 82.0103 321.562 79.2363 321.562 76.3438V42.8125C321.562 31.2145 312.16 21.8125 300.562 21.8125H267.969C265.126 21.8125 262.4 20.6635 260.389 18.6181C258.379 16.5728 257.25 13.7988 257.25 10.9062ZM10.7188 261.75C13.5615 261.75 16.2879 262.899 18.2981 264.944C20.3082 266.99 21.4375 269.764 21.4375 272.656V306.188C21.4375 317.785 30.8395 327.188 42.4375 327.188H75.0312C77.874 327.188 80.6004 328.337 82.6105 330.382C84.6207 332.427 85.75 335.201 85.75 338.094C85.75 340.986 84.6207 343.76 82.6105 345.806C80.6004 347.851 77.874 349 75.0312 349H10.7188C7.87596 349 5.1496 347.851 3.13945 345.806C1.12929 343.76 0 340.986 0 338.094V272.656C0 269.764 1.12929 266.99 3.13945 264.944C5.1496 262.899 7.87596 261.75 10.7188 261.75ZM332.281 261.75C335.124 261.75 337.85 262.899 339.861 264.944C341.871 266.99 343 269.764 343 272.656V338.094C343 340.986 341.871 343.76 339.861 345.806C337.85 347.851 335.124 349 332.281 349H267.969C265.126 349 262.4 347.851 260.389 345.806C258.379 343.76 257.25 340.986 257.25 338.094C257.25 335.201 258.379 332.427 260.389 330.382C262.4 328.337 265.126 327.188 267.969 327.188H300.562C312.16 327.188 321.562 317.785 321.562 306.188V272.656C321.562 269.764 322.692 266.99 324.702 264.944C326.712 262.899 329.438 261.75 332.281 261.75ZM85.75 97.9688C85.75 92.049 90.549 87.25 96.4688 87.25C102.389 87.25 107.188 92.049 107.188 97.9688V98.3438C107.188 104.264 102.389 109.062 96.4688 109.062C90.549 109.062 85.75 104.264 85.75 98.3438V97.9688Z" fill="#FDB623"/>
<path d="M6.66943 174.5L339.189 171.592" stroke="#FDB623" stroke-width="7" stroke-linecap="round" stroke-linejoin="round"/>
</g>
<defs>
<clipPath id="clip0_4_1094">
<rect width="343" height="349" fill="white"/>
</clipPath>
</defs>
</svg>
