<svg width="26" height="26" viewBox="0 0 26 26" fill="none" xmlns="http://www.w3.org/2000/svg">
<g id="ic32-arrow-right">
<path id="Icon" fill-rule="evenodd" clip-rule="evenodd" d="M14.5307 4.6355L14.6222 4.52952C15.0187 4.12397 15.6427 4.09278 16.0742 4.43593L16.1778 4.52952L23.8778 12.4045L23.9234 12.454L23.984 12.5303L24.0629 12.6554L24.1217 12.7823L24.1606 12.9008L24.1924 13.0672L24.2 13.2L24.1969 13.2847L24.1777 13.4258L24.1453 13.5512L24.097 13.6761L24.0394 13.7858L23.9584 13.9036L23.8778 13.9955L16.1778 21.8705C15.7483 22.3098 15.0518 22.3098 14.6222 21.8705C14.2257 21.465 14.1952 20.8268 14.5307 20.3855L14.6222 20.2795L20.4424 14.325H3.30001C2.6925 14.325 2.20001 13.8213 2.20001 13.2C2.20001 12.5787 2.6925 12.075 3.30001 12.075H20.4446L14.6222 6.12051C14.2257 5.71496 14.1952 5.07683 14.5307 4.6355L14.6222 4.52952L14.5307 4.6355Z" fill="#333333"/>
</g>
</svg>
